<svg fill-rule="evenodd" height="127" preserveAspectRatio="xMinYMin meet" version="1.0" viewBox="0 0 57 70" width="103" xmlns="http://www.w3.org/2000/svg" xmlns:xlink="http://www.w3.org/1999/xlink"><title>...</title><desc>...</desc><g clip="0 0 57 70" id="group" transform="scale(1,-1) translate(0,-70)"><g transform=""><g transform=" matrix(1,0,0,-1,0,70.6)"><g transform=""><g transform=""><g transform=""><polygon points="46.6 14.3, 32.3 0, .7 0, .7 59.3, 46.7 59.3, 46.7 14.3" style="stroke: none; stroke-linecap: butt; stroke-width: 1; fill: rgb(100%,100%,100%); fill-rule: evenodd;"/><polygon points="32.3 0, 32.3 14.3, 46.6 14.3" style="stroke: none; stroke-linecap: butt; stroke-width: 1; fill: rgb(92%,92%,90%); fill-rule: evenodd;"/><g transform=""><path d="M 23.7 22.5 L 7.3 22.5 C 6.7 22.5 6.3 22 6.3 21.5 C 6.3 20.9 6.8 20.5 7.3 20.5 L 23.7 20.5 C 24.3 20.5 24.7 21 24.7 21.5 C 24.7 22 24.2 22.5 23.7 22.5 Z " style="stroke: none; stroke-linecap: butt; stroke-width: 1; fill: rgb(92%,92%,90%); fill-rule: evenodd;"/></g><g transform=""><path d="M 23.7 26.5 L 7.3 26.5 C 6.7 26.5 6.3 26.1 6.3 25.5 C 6.3 24.9 6.8 24.5 7.3 24.5 L 23.7 24.5 C 24.3 24.5 24.7 24.9 24.7 25.5 C 24.7 26 24.2 26.5 23.7 26.5 Z " style="stroke: none; stroke-linecap: butt; stroke-width: 1; fill: rgb(92%,92%,90%); fill-rule: evenodd;"/></g><g transform=""><path d="M 23.7 34.5 L 7.3 34.5 C 6.7 34.5 6.3 34.1 6.3 33.5 C 6.3 32.9 6.8 32.5 7.3 32.5 L 23.7 32.5 C 24.3 32.5 24.7 32.9 24.7 33.5 C 24.7 34 24.2 34.5 23.7 34.5 Z " style="stroke: none; stroke-linecap: butt; stroke-width: 1; fill: rgb(92%,92%,90%); fill-rule: evenodd;"/></g><g transform=""><path d="M 23.7 30.5 L 7.3 30.5 C 6.7 30.5 6.3 30.1 6.3 29.5 C 6.3 28.9 6.8 28.5 7.3 28.5 L 23.7 28.5 C 24.3 28.5 24.7 28.9 24.7 29.5 C 24.7 30 24.2 30.5 23.7 30.5 Z " style="stroke: none; stroke-linecap: butt; stroke-width: 1; fill: rgb(92%,92%,90%); fill-rule: evenodd;"/></g><g transform=""><path d="M 23.7 42.4 L 7.3 42.4 C 6.7 42.4 6.3 42 6.3 41.4 C 6.3 40.8 6.8 40.4 7.3 40.4 L 23.7 40.4 C 24.3 40.4 24.7 40.8 24.7 41.4 C 24.7 41.9 24.2 42.4 23.7 42.4 Z " style="stroke: none; stroke-linecap: butt; stroke-width: 1; fill: rgb(92%,92%,90%); fill-rule: evenodd;"/></g><g transform=""><path d="M 23.7 38.4 L 7.3 38.4 C 6.7 38.4 6.3 38 6.3 37.4 C 6.3 36.8 6.8 36.4 7.3 36.4 L 23.7 36.4 C 24.3 36.4 24.7 36.8 24.7 37.4 C 24.7 38 24.2 38.4 23.7 38.4 Z " style="stroke: none; stroke-linecap: butt; stroke-width: 1; fill: rgb(92%,92%,90%); fill-rule: evenodd;"/></g><g transform=""><path d="M 34.3 37.6 C 34 37.6 33.7 37.5 33.5 37.3 L 31.1 35.1 C 30.6 34.7 30.6 33.9 31 33.5 C 31.4 33 32.2 33 32.6 33.4 L 34.2 34.9 L 39 30.7 C 39.5 30.3 40.2 30.4 40.6 30.8 C 41 31.3 40.9 32 40.5 32.4 L 34.9 37.2 C 34.8 37.5 34.5 37.5 34.3 37.6 Z " style="stroke: none; stroke-linecap: butt; stroke-width: 1; fill: rgb(64%,80%,22%); fill-rule: evenodd;"/></g><rect height="3.799999999999997" style="stroke: none; stroke-linecap: butt; stroke-width: 1; fill: rgb(64%,80%,22%); fill-rule: evenodd;" width="18.4" x="6.3" y="46.0"/><g transform=" matrix(1,0,0,1,3,3)"><g transform=""><path d="M 6.5 4 L 6.5 2.2 C 6.5 1.5 5.9 0.9 5.2 0.9 L 4.9 0.9 L 4.9 1.7 C 4.9 2.8 4 3.7 2.9 3.7 L 2.1 3.7 L 2.1 4 C 2.1 4.7 2.7 5.3 3.4 5.3 L 5.2 5.3 C 5.9 5.3 6.5 4.7 6.5 4 Z " style="stroke: none; stroke-linecap: butt; stroke-width: 0; fill: rgb(65%,80%,22%); fill-rule: evenodd;"/><path d="M 6.5 4 L 6.5 2.2 C 6.5 1.5 5.9 0.9 5.2 0.9 L 4.9 0.9 L 4.9 1.7 C 4.9 2.8 4 3.7 2.9 3.7 L 2.1 3.7 L 2.1 4 C 2.1 4.7 2.7 5.3 3.4 5.3 L 5.2 5.3 C 5.9 5.3 6.5 4.7 6.5 4 " style="stroke: none; stroke-linecap: butt; stroke-width: 1; fill: none; fill-rule: evenodd;"/></g><g transform=""><path d="M 4.2 1.7 L 4.2 0.9 L 3.4 0.9 C 2.7 0.9 2.1 1.5 2.1 2.2 L 2.1 3 L 2.9 3 C 3.6 3 4.2 2.4 4.2 1.7 Z " style="stroke: none; stroke-linecap: butt; stroke-width: 0; fill: rgb(3%,42%,21%); fill-rule: evenodd;"/><path d="M 4.2 1.7 L 4.2 0.9 L 3.4 0.9 C 2.7 0.9 2.1 1.5 2.1 2.2 L 2.1 3 L 2.9 3 C 3.6 3 4.2 2.4 4.2 1.7 " style="stroke: none; stroke-linecap: butt; stroke-width: 1; fill: none; fill-rule: evenodd;"/></g><g transform=""><path d="M 0.5 1.5 L 0 1.5 L 0 2 C 0 2.6 0.4 3 0.9 3 L 1.5 3 L 1.5 2.4 C 1.5 1.9 1.1 1.5 0.5 1.5 Z " style="stroke: none; stroke-linecap: butt; stroke-width: 0; fill: rgb(3%,42%,21%); fill-rule: evenodd;"/><path d="M 0.5 1.5 L 0 1.5 L 0 2 C 0 2.6 0.4 3 0.9 3 L 1.5 3 L 1.5 2.4 C 1.5 1.9 1.1 1.5 0.5 1.5 " style="stroke: none; stroke-linecap: butt; stroke-width: 1; fill: none; fill-rule: evenodd;"/></g></g></g></g></g></g></g></g></svg>