<svg fill-rule="evenodd" height="127" preserveAspectRatio="xMinYMin meet" version="1.0" viewBox="0 0 55 66" width="106" xmlns="http://www.w3.org/2000/svg" xmlns:xlink="http://www.w3.org/1999/xlink"><title>...</title><desc>...</desc><g clip="0 0 55 66" id="group" transform="scale(1,-1) translate(0,-66)"><g transform=""><g transform=" matrix(1,0,0,-1,0,66)"><g transform=""><g transform=" matrix(1,0,0,1,-1,0)"><g transform=""><path d="M 36.261413 19.326132 L 36.261413 21.699621 L 49.071322 21.699621 C 51.172948 21.699621 52.874264 23.281948 52.874264 25.259855 L 52.874264 30.105729 C 51.873489 29.314566 50.472406 28.820089 49.071322 28.820089 L 8.039583 28.820089 C 5.937957 28.820089 4.236641 27.237763 4.236641 25.259855 C 4.236641 23.281948 5.937957 21.699621 8.039583 21.699621 L 22.050421 21.699621 L 22.050421 19.326132 L 8.039583 19.326132 C 4.536874 19.326132 1.634629 21.996308 1.634629 25.259855 L 1.634629 59.873239 C 1.634629 63.235682 4.536874 65.806961 8.039583 65.806961 L 49.071322 65.806961 C 52.574031 65.806961 55.476276 63.136786 55.476276 59.873239 L 55.476276 25.259855 C 55.376199 21.996308 52.574031 19.326132 49.071322 19.326132 L 36.261413 19.326132 Z " style="stroke: none; stroke-linecap: butt; stroke-width: 1; fill: rgb(6%,42%,22%); fill-rule: evenodd;"/></g><g transform=""><path d="M 55.376199 53.939516 L 40.064355 53.939516 C 36.561645 53.939516 33.6594 51.26934 33.6594 48.005793 C 33.6594 44.64335 36.561645 42.07207 40.064355 42.07207 L 55.476276 42.07207 L 55.476276 53.939516 L 55.376199 53.939516 Z " style="stroke: none; stroke-linecap: butt; stroke-width: 1; fill: rgb(100%,100%,100%); fill-rule: evenodd;"/></g><g transform=""><path d="M 40.464664 48.005793 C 40.464664 48.698061 39.8642 49.192538 39.163658 49.192538 C 38.463116 49.192538 37.862652 48.599165 37.862652 48.005793 C 37.862652 47.313525 38.463116 46.819048 39.163658 46.819048 C 39.8642 46.819048 40.464664 47.313525 40.464664 48.005793 Z M 35.360717 48.005793 C 35.360717 49.9837 37.062033 51.566027 39.163658 51.566027 C 41.265284 51.566027 42.9666 49.9837 42.9666 48.005793 C 42.9666 46.027885 41.265284 44.346664 39.163658 44.346664 C 37.062033 44.346664 35.360717 46.027885 35.360717 48.005793 Z " style="stroke: none; stroke-linecap: butt; stroke-width: 0; fill: rgb(6%,42%,22%); fill-rule: evenodd;"/><path d="M 40.464664 48.005793 C 40.464664 48.698061 39.8642 49.192538 39.163658 49.192538 C 38.463116 49.192538 37.862652 48.599165 37.862652 48.005793 C 37.862652 47.313525 38.463116 46.819048 39.163658 46.819048 C 39.8642 46.819048 40.464664 47.313525 40.464664 48.005793 M 35.360717 48.005793 C 35.360717 49.9837 37.062033 51.566027 39.163658 51.566027 C 41.265284 51.566027 42.9666 49.9837 42.9666 48.005793 C 42.9666 46.027885 41.265284 44.346664 39.163658 44.346664 C 37.062033 44.346664 35.360717 46.027885 35.360717 48.005793 " style="stroke: none; stroke-linecap: butt; stroke-width: 1; fill: none; fill-rule: evenodd;"/></g><g transform=""><path d="M 30.857233 28.918984 L 8.039583 28.918984 C 5.937957 28.918984 4.236641 27.336658 4.236641 25.358751 C 4.236641 23.380843 5.937957 21.798517 8.039583 21.798517 L 13.043454 21.798517 L 15.745544 19.425028 L 8.039583 19.425028 C 4.536874 19.425028 1.634629 22.095203 1.634629 25.358751 L 1.634629 59.972134 C 1.634629 63.334577 4.536874 65.905857 8.039583 65.905857 L 30.857233 65.905857 L 30.857233 28.918984 Z " style="stroke: none; stroke-linecap: butt; stroke-width: 1; fill: rgb(11%,49%,28%); fill-rule: evenodd;"/></g><g transform=" matrix(1,0,0,1,0,3.409718)"><g transform=""/><g transform=""><path d="M 19.758835 0.582912 L 39.026782 10.200428 C 39.628842 10.431952 39.74966 11.1275 39.509039 11.706797 L 21.445211 46.584823 C 21.203575 47.16412 20.481713 47.395644 19.999455 47.04787 L 0.61069 37.430354 C 0.00863 37.198831 -0.111173 36.50426 0.129448 35.923985 L 18.314094 0.930686 C 18.554715 0.582912 19.277593 0.351389 19.758835 0.582912 Z " style="stroke: none; stroke-linecap: butt; stroke-width: 0; fill: rgb(48%,57%,7%); fill-rule: evenodd;"/><path d="M 19.758835 0.582912 L 39.026782 10.200428 C 39.628842 10.431952 39.74966 11.1275 39.509039 11.706797 L 21.445211 46.584823 C 21.203575 47.16412 20.481713 47.395644 19.999455 47.04787 L 0.61069 37.430354 C 0.00863 37.198831 -0.111173 36.50426 0.129448 35.923985 L 18.314094 0.930686 C 18.554715 0.582912 19.277593 0.351389 19.758835 0.582912 " style="stroke: none; stroke-linecap: butt; stroke-width: 1; fill: none; fill-rule: evenodd;"/></g></g><g transform=" matrix(1,0,0,1,3.5,0)"><g transform=""><path d="M 27.93761 22.980343 L 32.210916 14.637673 C 32.330008 14.406149 32.210916 14.058375 31.973732 13.942125 L 15.829244 5.830979 C 15.592061 5.714729 15.235785 5.830979 15.117694 6.062503 L 10.843388 14.406149 C 10.725296 14.637673 10.843388 14.985447 11.081572 15.10072 C 11.318755 15.216971 11.675031 15.10072 11.793122 14.869197 L 15.829244 7.105825 L 30.904906 14.637673 L 26.868784 22.401045 C 26.750692 22.632569 26.868784 22.980343 27.106968 23.096593 C 27.463243 23.328117 27.818518 23.211866 27.93761 22.980343 Z " style="stroke: none; stroke-linecap: butt; stroke-width: 0; fill: rgb(100%,100%,100%); fill-rule: evenodd;"/><path d="M 27.93761 22.980343 L 32.210916 14.637673 C 32.330008 14.406149 32.210916 14.058375 31.973732 13.942125 L 15.829244 5.830979 C 15.592061 5.714729 15.235785 5.830979 15.117694 6.062503 L 10.843388 14.406149 C 10.725296 14.637673 10.843388 14.985447 11.081572 15.10072 C 11.318755 15.216971 11.675031 15.10072 11.793122 14.869197 L 15.829244 7.105825 L 30.904906 14.637673 L 26.868784 22.401045 C 26.750692 22.632569 26.868784 22.980343 27.106968 23.096593 C 27.463243 23.328117 27.818518 23.211866 27.93761 22.980343 " style="stroke: none; stroke-linecap: butt; stroke-width: 1; fill: none; fill-rule: evenodd;"/></g><g transform=" matrix(1,0,0,1,0,0.976893)"><g transform=""/><g transform=""><path d="M 24.138972 0.79861 L 42.181929 12.154019 C 42.657296 12.501793 42.89448 13.197341 42.538204 13.660389 L 20.459126 48.769938 C 20.10285 49.233962 19.390299 49.465486 18.915932 49.117712 L 0.872975 37.762303 C 0.397608 37.414529 0.160424 36.719957 0.5167 36.255933 L 22.476686 1.146384 C 22.832962 0.68236 23.545513 0.450836 24.138972 0.79861 Z " style="stroke: none; stroke-linecap: butt; stroke-width: 0; fill: rgb(57%,70%,14%); fill-rule: evenodd;"/><path d="M 24.138972 0.79861 L 42.181929 12.154019 C 42.657296 12.501793 42.89448 13.197341 42.538204 13.660389 L 20.459126 48.769938 C 20.10285 49.233962 19.390299 49.465486 18.915932 49.117712 L 0.872975 37.762303 C 0.397608 37.414529 0.160424 36.719957 0.5167 36.255933 L 22.476686 1.146384 C 22.832962 0.68236 23.545513 0.450836 24.138972 0.79861 " style="stroke: none; stroke-linecap: butt; stroke-width: 1; fill: none; fill-rule: evenodd;"/></g></g><g transform=""><path d="M 39.689601 14.521618 C 39.808693 14.290094 39.808693 13.94232 39.452417 13.710797 L 24.257664 4.093281 C 24.02048 3.977031 23.664205 3.977031 23.427021 4.324805 L 18.322073 12.204427 C 18.203981 12.435951 18.203981 12.783725 18.560257 13.015249 C 18.79744 13.131499 19.153716 13.131499 19.390899 12.783725 L 24.257664 5.36715 L 38.502683 14.405368 L 33.516826 21.705692 C 33.397734 21.937216 33.397734 22.28499 33.754009 22.516514 C 33.991193 22.632764 34.347468 22.632764 34.585653 22.28499 L 39.689601 14.521618 Z " style="stroke: none; stroke-linecap: butt; stroke-width: 1; fill: rgb(100%,100%,100%); fill-rule: evenodd;"/></g><g transform=" matrix(1,0,0,1,4.003096,0)"><g transform=""/><g transform=""><path d="M 46.48826 14.173942 C 46.963627 14.521716 47.08272 15.217264 46.726444 15.796562 L 19.7796 48.935716 C 19.423324 49.399741 18.711774 49.515991 18.118315 49.168217 L 1.024092 35.842414 C 0.549725 35.49464 0.430633 34.799092 0.786909 34.219794 L 27.732752 1.080639 C 28.20812 0.616615 28.920671 0.501342 29.395038 0.964389 L 46.48826 14.173942 Z " style="stroke: none; stroke-linecap: butt; stroke-width: 1; fill: rgb(64%,80%,21%); fill-rule: evenodd;"/></g></g><g transform=" matrix(1,0,0,1,7.005419,2.93068)"><g transform=""/><g transform=""><path d="M 30.547429 12.054376 C 31.021796 11.475078 30.903705 10.77953 30.310246 10.316483 C 29.716787 9.852458 29.004235 9.968709 28.529868 10.548006 C 28.054501 11.127304 28.173593 11.822852 28.767052 12.2859 C 29.360511 12.633674 30.073062 12.517424 30.547429 12.054376 Z M 11.07937 32.100229 C 10.605003 32.679526 10.723095 33.375074 11.316554 33.839099 C 11.911013 34.302146 12.622564 34.185896 13.097931 33.606598 C 13.572299 33.027301 13.453206 32.332729 12.859747 31.868705 C 12.266288 31.520931 11.435646 31.637181 11.07937 32.100229 Z M 40.993509 11.822852 L 26.392215 0.467443 C 26.155031 0.234943 25.680664 0.351193 25.561572 0.582717 L 21.169175 6.028898 C 20.931991 6.260421 21.051084 6.724446 21.288267 6.839719 C 21.52545 7.07222 22.000818 6.955969 22.118909 6.724446 L 26.155031 1.857563 L 39.687499 12.40215 L 35.651377 17.269033 C 35.414194 17.500557 35.533286 17.963604 35.770469 18.079855 C 36.007653 18.311378 36.48302 18.196105 36.601112 17.963604 L 40.993509 12.517424 C 41.349785 12.40215 41.230693 12.054376 40.993509 11.822852 Z M 20.338532 37.198635 C 20.101349 36.967112 19.625981 37.083362 19.50789 37.314886 L 15.471768 42.181768 L 1.820208 31.637181 L 5.85633 26.770298 C 6.093513 26.538774 5.975422 26.07475 5.738239 25.959477 C 5.500054 25.727953 5.025687 25.843226 4.906595 26.07475 L 0.396106 31.405658 C 0.158923 31.637181 0.277014 32.100229 0.515199 32.216479 L 15.115492 43.571888 C 15.352676 43.803412 15.828043 43.688138 15.946135 43.456614 L 20.338532 38.010434 C 20.694808 37.894183 20.575716 37.431136 20.338532 37.198635 Z M 14.28485 17.036532 C 11.435646 20.513296 12.029105 25.611703 15.59086 28.392918 C 19.151614 31.173157 24.374654 30.593859 27.223858 27.118072 C 30.073062 23.641309 29.478602 18.542902 25.917848 15.762663 C 22.357094 12.865198 17.134054 13.560746 14.28485 17.036532 Z " style="stroke: none; stroke-linecap: butt; stroke-width: 0; fill: rgb(100%,100%,100%); fill-rule: evenodd;"/><path d="M 30.547429 12.054376 C 31.021796 11.475078 30.903705 10.77953 30.310246 10.316483 C 29.716787 9.852458 29.004235 9.968709 28.529868 10.548006 C 28.054501 11.127304 28.173593 11.822852 28.767052 12.2859 C 29.360511 12.633674 30.073062 12.517424 30.547429 12.054376 M 11.07937 32.100229 C 10.605003 32.679526 10.723095 33.375074 11.316554 33.839099 C 11.911013 34.302146 12.622564 34.185896 13.097931 33.606598 C 13.572299 33.027301 13.453206 32.332729 12.859747 31.868705 C 12.266288 31.520931 11.435646 31.637181 11.07937 32.100229 M 40.993509 11.822852 L 26.392215 0.467443 C 26.155031 0.234943 25.680664 0.351193 25.561572 0.582717 L 21.169175 6.028898 C 20.931991 6.260421 21.051084 6.724446 21.288267 6.839719 C 21.52545 7.07222 22.000818 6.955969 22.118909 6.724446 L 26.155031 1.857563 L 39.687499 12.40215 L 35.651377 17.269033 C 35.414194 17.500557 35.533286 17.963604 35.770469 18.079855 C 36.007653 18.311378 36.48302 18.196105 36.601112 17.963604 L 40.993509 12.517424 C 41.349785 12.40215 41.230693 12.054376 40.993509 11.822852 M 20.338532 37.198635 C 20.101349 36.967112 19.625981 37.083362 19.50789 37.314886 L 15.471768 42.181768 L 1.820208 31.637181 L 5.85633 26.770298 C 6.093513 26.538774 5.975422 26.07475 5.738239 25.959477 C 5.500054 25.727953 5.025687 25.843226 4.906595 26.07475 L 0.396106 31.405658 C 0.158923 31.637181 0.277014 32.100229 0.515199 32.216479 L 15.115492 43.571888 C 15.352676 43.803412 15.828043 43.688138 15.946135 43.456614 L 20.338532 38.010434 C 20.694808 37.894183 20.575716 37.431136 20.338532 37.198635 M 14.28485 17.036532 C 11.435646 20.513296 12.029105 25.611703 15.59086 28.392918 C 19.151614 31.173157 24.374654 30.593859 27.223858 27.118072 C 30.073062 23.641309 29.478602 18.542902 25.917848 15.762663 C 22.357094 12.865198 17.134054 13.560746 14.28485 17.036532 " style="stroke: none; stroke-linecap: butt; stroke-width: 1; fill: none; fill-rule: evenodd;"/></g></g></g></g></g></g></g></g></svg>