<svg fill-rule="evenodd" height="127" preserveAspectRatio="xMinYMin meet" version="1.0" viewBox="0 0 50 85" width="75" xmlns="http://www.w3.org/2000/svg" xmlns:xlink="http://www.w3.org/1999/xlink"><title>...</title><desc>...</desc><g clip="0 0 50 85" id="group" transform="scale(1,-1) translate(0,-85)"><g transform=""><g transform=" matrix(1,0,0,-1.268657,0,85)"><g transform=""><g transform=" matrix(1,0,0,1,-1710,-1407)"><g transform=" matrix(1,0,0,1,1710,1407)"><g transform=""><path d="M 43.11477 10.202992 L 43.11477 1.34 L 6.756757 1.34 L 6.756757 10.329606 C 6.756757 19.319213 11.638751 27.42252 19.218691 31.98063 C 20.374952 32.740315 20.374952 34.386299 19.218691 35.01937 C 11.510278 39.450866 6.756757 47.554173 6.756757 56.670394 L 6.756757 65.66 L 43.243243 65.66 L 43.243243 56.670394 C 43.243243 47.680787 38.361249 39.57748 30.781309 35.01937 C 29.625048 34.259685 29.625048 32.613701 30.781309 31.98063 C 38.361249 27.42252 43.11477 19.192598 43.11477 10.202992 Z " style="stroke: none; stroke-linecap: butt; stroke-width: 0; fill: rgb(11%,49%,28%); fill-rule: evenodd;"/><path d="M 43.11477 10.202992 L 43.11477 1.34 L 6.756757 1.34 L 6.756757 10.329606 C 6.756757 19.319213 11.638751 27.42252 19.218691 31.98063 C 20.374952 32.740315 20.374952 34.386299 19.218691 35.01937 C 11.510278 39.450866 6.756757 47.554173 6.756757 56.670394 L 6.756757 65.66 L 43.243243 65.66 L 43.243243 56.670394 C 43.243243 47.680787 38.361249 39.57748 30.781309 35.01937 C 29.625048 34.259685 29.625048 32.613701 30.781309 31.98063 C 38.361249 27.42252 43.11477 19.192598 43.11477 10.202992 " style="stroke: none; stroke-linecap: butt; stroke-width: 1; fill: none; fill-rule: evenodd;"/></g><g transform=""><path d="M 25.675676 64.32 L 44.594595 64.32 L 44.594595 55.482885 C 44.594595 46.645771 39.531785 38.679921 31.671108 34.19913 C 30.472021 33.452332 30.472021 31.834269 31.671108 31.211937 C 39.665017 26.855613 44.594595 18.889763 44.594595 9.928182 L 44.594595 1.34 L 25.675676 1.34 L 25.675676 64.32 Z " style="stroke: none; stroke-linecap: butt; stroke-width: 1; fill: rgb(5%,42%,22%); fill-rule: evenodd;"/></g><g transform=""><path d="M 47.402597 5.36 L 2.597403 5.36 C 1.168831 5.36 0 4.154 0 2.68 C 0 1.206 1.168831 0 2.597403 0 L 47.402597 0 C 48.831169 0 50 1.206 50 2.68 C 50 4.154 48.831169 5.36 47.402597 5.36 Z " style="stroke: none; stroke-linecap: butt; stroke-width: 0; fill: rgb(100%,100%,100%); fill-rule: evenodd;"/><path d="M 47.402597 5.36 L 2.597403 5.36 C 1.168831 5.36 0 4.154 0 2.68 C 0 1.206 1.168831 0 2.597403 0 L 47.402597 0 C 48.831169 0 50 1.206 50 2.68 C 50 4.154 48.831169 5.36 47.402597 5.36 " style="stroke: none; stroke-linecap: butt; stroke-width: 1; fill: none; fill-rule: evenodd;"/></g><g transform=""><path d="M 47.402597 67 L 2.597403 67 C 1.168831 67 0 65.794 0 64.32 C 0 62.846 1.168831 61.64 2.597403 61.64 L 47.402597 61.64 C 48.831169 61.64 50 62.846 50 64.32 C 50 65.794 48.831169 67 47.402597 67 Z " style="stroke: none; stroke-linecap: butt; stroke-width: 0; fill: rgb(100%,100%,100%); fill-rule: evenodd;"/><path d="M 47.402597 67 L 2.597403 67 C 1.168831 67 0 65.794 0 64.32 C 0 62.846 1.168831 61.64 2.597403 61.64 L 47.402597 61.64 C 48.831169 61.64 50 62.846 50 64.32 C 50 65.794 48.831169 67 47.402597 67 " style="stroke: none; stroke-linecap: butt; stroke-width: 1; fill: none; fill-rule: evenodd;"/></g><g transform=""><path d="M 10.810811 58.968525 C 10.810811 59.76741 10.135135 60.3 9.459459 60.3 C 8.648649 60.3 8.108108 59.76741 8.108108 58.968525 C 8.108108 58.16964 8.783784 57.63705 9.459459 57.63705 C 10.27027 57.503903 10.810811 58.16964 10.810811 58.968525 Z " style="stroke: none; stroke-linecap: butt; stroke-width: 0; fill: rgb(90%,92%,92%); fill-rule: evenodd;"/><path d="M 10.810811 58.968525 C 10.810811 59.76741 10.135135 60.3 9.459459 60.3 C 8.648649 60.3 8.108108 59.76741 8.108108 58.968525 C 8.108108 58.16964 8.783784 57.63705 9.459459 57.63705 C 10.27027 57.503903 10.810811 58.16964 10.810811 58.968525 " style="stroke: none; stroke-linecap: butt; stroke-width: 1; fill: none; fill-rule: evenodd;"/></g><g transform=""><path d="M 16.216216 58.968525 C 16.216216 59.76741 15.675676 60.3 14.864865 60.3 C 14.054054 60.3 13.513514 59.76741 13.513514 58.968525 C 13.513514 58.16964 14.189189 57.63705 14.864865 57.63705 C 15.540541 57.503903 16.216216 58.16964 16.216216 58.968525 Z " style="stroke: none; stroke-linecap: butt; stroke-width: 0; fill: rgb(90%,92%,92%); fill-rule: evenodd;"/><path d="M 16.216216 58.968525 C 16.216216 59.76741 15.675676 60.3 14.864865 60.3 C 14.054054 60.3 13.513514 59.76741 13.513514 58.968525 C 13.513514 58.16964 14.189189 57.63705 14.864865 57.63705 C 15.540541 57.503903 16.216216 58.16964 16.216216 58.968525 " style="stroke: none; stroke-linecap: butt; stroke-width: 1; fill: none; fill-rule: evenodd;"/></g><g transform=""><path d="M 21.621622 58.968525 C 21.621622 59.76741 21.081081 60.3 20.27027 60.3 C 19.45946 60.3 18.918919 59.76741 18.918919 58.968525 C 18.918919 58.16964 19.45946 57.63705 20.27027 57.63705 C 20.945946 57.503903 21.621622 58.16964 21.621622 58.968525 Z " style="stroke: none; stroke-linecap: butt; stroke-width: 0; fill: rgb(90%,92%,92%); fill-rule: evenodd;"/><path d="M 21.621622 58.968525 C 21.621622 59.76741 21.081081 60.3 20.27027 60.3 C 19.45946 60.3 18.918919 59.76741 18.918919 58.968525 C 18.918919 58.16964 19.45946 57.63705 20.27027 57.63705 C 20.945946 57.503903 21.621622 58.16964 21.621622 58.968525 " style="stroke: none; stroke-linecap: butt; stroke-width: 1; fill: none; fill-rule: evenodd;"/></g><g transform=""><path d="M 25.675676 58.968525 C 25.675676 59.76741 25.135135 60.3 24.324324 60.3 C 23.513513 60.3 22.972973 59.76741 22.972973 58.968525 C 22.972973 58.16964 23.513513 57.63705 24.324324 57.63705 C 25.135135 57.503903 25.675676 58.16964 25.675676 58.968525 Z " style="stroke: none; stroke-linecap: butt; stroke-width: 0; fill: rgb(90%,92%,92%); fill-rule: evenodd;"/><path d="M 25.675676 58.968525 C 25.675676 59.76741 25.135135 60.3 24.324324 60.3 C 23.513513 60.3 22.972973 59.76741 22.972973 58.968525 C 22.972973 58.16964 23.513513 57.63705 24.324324 57.63705 C 25.135135 57.503903 25.675676 58.16964 25.675676 58.968525 " style="stroke: none; stroke-linecap: butt; stroke-width: 1; fill: none; fill-rule: evenodd;"/></g><g transform=""><path d="M 31.081081 58.968525 C 31.081081 59.76741 30.405405 60.3 29.72973 60.3 C 29.054054 60.3 28.378378 59.76741 28.378378 58.968525 C 28.378378 58.16964 28.918919 57.63705 29.72973 57.63705 C 30.54054 57.503903 31.081081 58.16964 31.081081 58.968525 Z " style="stroke: none; stroke-linecap: butt; stroke-width: 0; fill: rgb(90%,92%,92%); fill-rule: evenodd;"/><path d="M 31.081081 58.968525 C 31.081081 59.76741 30.405405 60.3 29.72973 60.3 C 29.054054 60.3 28.378378 59.76741 28.378378 58.968525 C 28.378378 58.16964 28.918919 57.63705 29.72973 57.63705 C 30.54054 57.503903 31.081081 58.16964 31.081081 58.968525 " style="stroke: none; stroke-linecap: butt; stroke-width: 1; fill: none; fill-rule: evenodd;"/></g><g transform=""><path d="M 36.486486 58.968525 C 36.486486 59.76741 35.810811 60.3 35.135135 60.3 C 34.45946 60.3 33.783784 59.76741 33.783784 58.968525 C 33.783784 58.16964 34.45946 57.63705 35.135135 57.63705 C 35.945946 57.503903 36.486486 58.16964 36.486486 58.968525 Z " style="stroke: none; stroke-linecap: butt; stroke-width: 0; fill: rgb(90%,92%,92%); fill-rule: evenodd;"/><path d="M 36.486486 58.968525 C 36.486486 59.76741 35.810811 60.3 35.135135 60.3 C 34.45946 60.3 33.783784 59.76741 33.783784 58.968525 C 33.783784 58.16964 34.45946 57.63705 35.135135 57.63705 C 35.945946 57.503903 36.486486 58.16964 36.486486 58.968525 " style="stroke: none; stroke-linecap: butt; stroke-width: 1; fill: none; fill-rule: evenodd;"/></g><g transform=""><path d="M 41.891892 58.968525 C 41.891892 59.76741 41.351351 60.3 40.54054 60.3 C 39.72973 60.3 39.189189 59.76741 39.189189 58.968525 C 39.189189 58.16964 39.864865 57.63705 40.54054 57.63705 C 41.351351 57.503903 41.891892 58.16964 41.891892 58.968525 Z " style="stroke: none; stroke-linecap: butt; stroke-width: 0; fill: rgb(90%,92%,92%); fill-rule: evenodd;"/><path d="M 41.891892 58.968525 C 41.891892 59.76741 41.351351 60.3 40.54054 60.3 C 39.72973 60.3 39.189189 59.76741 39.189189 58.968525 C 39.189189 58.16964 39.864865 57.63705 40.54054 57.63705 C 41.351351 57.503903 41.891892 58.16964 41.891892 58.968525 " style="stroke: none; stroke-linecap: butt; stroke-width: 1; fill: none; fill-rule: evenodd;"/></g><g transform=""><path d="M 13.513514 56.28 C 13.513514 57.084 12.972973 57.62 12.162162 57.62 C 11.351351 57.62 10.810811 56.95 10.810811 56.28 C 10.810811 55.61 11.351351 54.94 12.162162 54.94 C 12.837838 54.94 13.513514 55.61 13.513514 56.28 Z " style="stroke: none; stroke-linecap: butt; stroke-width: 0; fill: rgb(90%,92%,92%); fill-rule: evenodd;"/><path d="M 13.513514 56.28 C 13.513514 57.084 12.972973 57.62 12.162162 57.62 C 11.351351 57.62 10.810811 56.95 10.810811 56.28 C 10.810811 55.61 11.351351 54.94 12.162162 54.94 C 12.837838 54.94 13.513514 55.61 13.513514 56.28 " style="stroke: none; stroke-linecap: butt; stroke-width: 1; fill: none; fill-rule: evenodd;"/></g><g transform=""><path d="M 18.918919 56.28 C 18.918919 57.084 18.243243 57.62 17.567568 57.62 C 16.891892 57.62 16.216216 56.95 16.216216 56.28 C 16.216216 55.61 16.756757 54.94 17.567568 54.94 C 18.243243 54.94 18.918919 55.61 18.918919 56.28 Z " style="stroke: none; stroke-linecap: butt; stroke-width: 0; fill: rgb(90%,92%,92%); fill-rule: evenodd;"/><path d="M 18.918919 56.28 C 18.918919 57.084 18.243243 57.62 17.567568 57.62 C 16.891892 57.62 16.216216 56.95 16.216216 56.28 C 16.216216 55.61 16.756757 54.94 17.567568 54.94 C 18.243243 54.94 18.918919 55.61 18.918919 56.28 " style="stroke: none; stroke-linecap: butt; stroke-width: 1; fill: none; fill-rule: evenodd;"/></g><g transform=""><path d="M 24.324324 56.28 C 24.324324 57.084 23.648649 57.62 22.972973 57.62 C 22.297297 57.62 21.621622 56.95 21.621622 56.28 C 21.621622 55.61 22.297297 54.94 22.972973 54.94 C 23.648649 54.94 24.324324 55.61 24.324324 56.28 Z " style="stroke: none; stroke-linecap: butt; stroke-width: 0; fill: rgb(90%,92%,92%); fill-rule: evenodd;"/><path d="M 24.324324 56.28 C 24.324324 57.084 23.648649 57.62 22.972973 57.62 C 22.297297 57.62 21.621622 56.95 21.621622 56.28 C 21.621622 55.61 22.297297 54.94 22.972973 54.94 C 23.648649 54.94 24.324324 55.61 24.324324 56.28 " style="stroke: none; stroke-linecap: butt; stroke-width: 1; fill: none; fill-rule: evenodd;"/></g><g transform=""><path d="M 28.378378 56.28 C 28.378378 57.084 27.837838 57.62 27.027027 57.62 C 26.216216 57.62 25.675676 56.95 25.675676 56.28 C 25.675676 55.61 26.351351 54.94 27.027027 54.94 C 27.702703 54.94 28.378378 55.61 28.378378 56.28 Z " style="stroke: none; stroke-linecap: butt; stroke-width: 0; fill: rgb(90%,92%,92%); fill-rule: evenodd;"/><path d="M 28.378378 56.28 C 28.378378 57.084 27.837838 57.62 27.027027 57.62 C 26.216216 57.62 25.675676 56.95 25.675676 56.28 C 25.675676 55.61 26.351351 54.94 27.027027 54.94 C 27.702703 54.94 28.378378 55.61 28.378378 56.28 " style="stroke: none; stroke-linecap: butt; stroke-width: 1; fill: none; fill-rule: evenodd;"/></g><g transform=""><path d="M 33.783784 56.28 C 33.783784 57.084 33.243243 57.62 32.432432 57.62 C 31.621622 57.62 31.081081 56.95 31.081081 56.28 C 31.081081 55.61 31.621622 54.94 32.432432 54.94 C 33.243243 54.94 33.783784 55.61 33.783784 56.28 Z " style="stroke: none; stroke-linecap: butt; stroke-width: 0; fill: rgb(90%,92%,92%); fill-rule: evenodd;"/><path d="M 33.783784 56.28 C 33.783784 57.084 33.243243 57.62 32.432432 57.62 C 31.621622 57.62 31.081081 56.95 31.081081 56.28 C 31.081081 55.61 31.621622 54.94 32.432432 54.94 C 33.243243 54.94 33.783784 55.61 33.783784 56.28 " style="stroke: none; stroke-linecap: butt; stroke-width: 1; fill: none; fill-rule: evenodd;"/></g><g transform=""><path d="M 39.189189 56.28 C 39.189189 57.084 38.648649 57.62 37.837838 57.62 C 37.027027 57.62 36.486486 56.95 36.486486 56.28 C 36.486486 55.61 37.027027 54.94 37.837838 54.94 C 38.648649 54.94 39.189189 55.61 39.189189 56.28 Z " style="stroke: none; stroke-linecap: butt; stroke-width: 0; fill: rgb(90%,92%,92%); fill-rule: evenodd;"/><path d="M 39.189189 56.28 C 39.189189 57.084 38.648649 57.62 37.837838 57.62 C 37.027027 57.62 36.486486 56.95 36.486486 56.28 C 36.486486 55.61 37.027027 54.94 37.837838 54.94 C 38.648649 54.94 39.189189 55.61 39.189189 56.28 " style="stroke: none; stroke-linecap: butt; stroke-width: 1; fill: none; fill-rule: evenodd;"/></g><g transform=""><path d="M 16.216216 53.6 C 16.216216 54.404 15.675676 54.94 14.864865 54.94 C 14.054054 54.94 13.513514 54.404 13.513514 53.6 C 13.513514 52.796 14.189189 52.26 14.864865 52.26 C 15.540541 52.26 16.216216 52.93 16.216216 53.6 Z " style="stroke: none; stroke-linecap: butt; stroke-width: 0; fill: rgb(90%,92%,92%); fill-rule: evenodd;"/><path d="M 16.216216 53.6 C 16.216216 54.404 15.675676 54.94 14.864865 54.94 C 14.054054 54.94 13.513514 54.404 13.513514 53.6 C 13.513514 52.796 14.189189 52.26 14.864865 52.26 C 15.540541 52.26 16.216216 52.93 16.216216 53.6 " style="stroke: none; stroke-linecap: butt; stroke-width: 1; fill: none; fill-rule: evenodd;"/></g><g transform=""><path d="M 21.621622 53.6 C 21.621622 54.404 21.081081 54.94 20.27027 54.94 C 19.45946 54.94 18.918919 54.404 18.918919 53.6 C 18.918919 52.796 19.45946 52.26 20.27027 52.26 C 20.945946 52.26 21.621622 52.93 21.621622 53.6 Z " style="stroke: none; stroke-linecap: butt; stroke-width: 0; fill: rgb(90%,92%,92%); fill-rule: evenodd;"/><path d="M 21.621622 53.6 C 21.621622 54.404 21.081081 54.94 20.27027 54.94 C 19.45946 54.94 18.918919 54.404 18.918919 53.6 C 18.918919 52.796 19.45946 52.26 20.27027 52.26 C 20.945946 52.26 21.621622 52.93 21.621622 53.6 " style="stroke: none; stroke-linecap: butt; stroke-width: 1; fill: none; fill-rule: evenodd;"/></g><g transform=""><path d="M 25.675676 30.82 C 25.675676 31.624 25.135135 32.16 24.324324 32.16 C 23.513513 32.16 22.972973 31.624 22.972973 30.82 C 22.972973 30.016 23.513513 29.48 24.324324 29.48 C 25.135135 29.48 25.675676 30.15 25.675676 30.82 Z " style="stroke: none; stroke-linecap: butt; stroke-width: 0; fill: rgb(64%,80%,22%); fill-rule: evenodd;"/><path d="M 25.675676 30.82 C 25.675676 31.624 25.135135 32.16 24.324324 32.16 C 23.513513 32.16 22.972973 31.624 22.972973 30.82 C 22.972973 30.016 23.513513 29.48 24.324324 29.48 C 25.135135 29.48 25.675676 30.15 25.675676 30.82 " style="stroke: none; stroke-linecap: butt; stroke-width: 1; fill: none; fill-rule: evenodd;"/></g><g transform=""><path d="M 18.918919 22.78 C 18.918919 23.584 18.243243 24.12 17.567568 24.12 C 16.891892 24.12 16.216216 23.45 16.216216 22.78 C 16.216216 22.11 16.756757 21.44 17.567568 21.44 C 18.243243 21.574 18.918919 22.11 18.918919 22.78 Z " style="stroke: none; stroke-linecap: butt; stroke-width: 0; fill: rgb(64%,80%,22%); fill-rule: evenodd;"/><path d="M 18.918919 22.78 C 18.918919 23.584 18.243243 24.12 17.567568 24.12 C 16.891892 24.12 16.216216 23.45 16.216216 22.78 C 16.216216 22.11 16.756757 21.44 17.567568 21.44 C 18.243243 21.574 18.918919 22.11 18.918919 22.78 " style="stroke: none; stroke-linecap: butt; stroke-width: 1; fill: none; fill-rule: evenodd;"/></g><g transform=""><path d="M 24.324324 22.78 C 24.324324 23.584 23.648649 24.12 22.972973 24.12 C 22.297297 24.12 21.621622 23.45 21.621622 22.78 C 21.621622 22.11 22.297297 21.44 22.972973 21.44 C 23.648649 21.574 24.324324 22.11 24.324324 22.78 Z " style="stroke: none; stroke-linecap: butt; stroke-width: 0; fill: rgb(64%,80%,22%); fill-rule: evenodd;"/><path d="M 24.324324 22.78 C 24.324324 23.584 23.648649 24.12 22.972973 24.12 C 22.297297 24.12 21.621622 23.45 21.621622 22.78 C 21.621622 22.11 22.297297 21.44 22.972973 21.44 C 23.648649 21.574 24.324324 22.11 24.324324 22.78 " style="stroke: none; stroke-linecap: butt; stroke-width: 1; fill: none; fill-rule: evenodd;"/></g><g transform=""><path d="M 28.378378 22.78 C 28.378378 23.584 27.837838 24.12 27.027027 24.12 C 26.216216 24.12 25.675676 23.45 25.675676 22.78 C 25.675676 22.11 26.351351 21.44 27.027027 21.44 C 27.702703 21.574 28.378378 22.11 28.378378 22.78 Z " style="stroke: none; stroke-linecap: butt; stroke-width: 0; fill: rgb(64%,80%,22%); fill-rule: evenodd;"/><path d="M 28.378378 22.78 C 28.378378 23.584 27.837838 24.12 27.027027 24.12 C 26.216216 24.12 25.675676 23.45 25.675676 22.78 C 25.675676 22.11 26.351351 21.44 27.027027 21.44 C 27.702703 21.574 28.378378 22.11 28.378378 22.78 " style="stroke: none; stroke-linecap: butt; stroke-width: 1; fill: none; fill-rule: evenodd;"/></g><g transform=""><path d="M 33.783784 22.78 C 33.783784 23.584 33.243243 24.12 32.432432 24.12 C 31.621622 24.12 31.081081 23.45 31.081081 22.78 C 31.081081 22.11 31.621622 21.44 32.432432 21.44 C 33.243243 21.574 33.783784 22.11 33.783784 22.78 Z " style="stroke: none; stroke-linecap: butt; stroke-width: 0; fill: rgb(64%,80%,22%); fill-rule: evenodd;"/><path d="M 33.783784 22.78 C 33.783784 23.584 33.243243 24.12 32.432432 24.12 C 31.621622 24.12 31.081081 23.45 31.081081 22.78 C 31.081081 22.11 31.621622 21.44 32.432432 21.44 C 33.243243 21.574 33.783784 22.11 33.783784 22.78 " style="stroke: none; stroke-linecap: butt; stroke-width: 1; fill: none; fill-rule: evenodd;"/></g><g transform=""><path d="M 31.081081 20.1 C 31.081081 20.904 30.405405 21.44 29.72973 21.44 C 29.054054 21.44 28.378378 20.904 28.378378 20.1 C 28.378378 19.296 28.918919 18.76 29.72973 18.76 C 30.54054 18.76 31.081081 19.43 31.081081 20.1 Z " style="stroke: none; stroke-linecap: butt; stroke-width: 0; fill: rgb(64%,80%,22%); fill-rule: evenodd;"/><path d="M 31.081081 20.1 C 31.081081 20.904 30.405405 21.44 29.72973 21.44 C 29.054054 21.44 28.378378 20.904 28.378378 20.1 C 28.378378 19.296 28.918919 18.76 29.72973 18.76 C 30.54054 18.76 31.081081 19.43 31.081081 20.1 " style="stroke: none; stroke-linecap: butt; stroke-width: 1; fill: none; fill-rule: evenodd;"/></g><g transform=""><path d="M 33.783784 17.42 C 33.783784 18.224 33.243243 18.76 32.432432 18.76 C 31.621622 18.76 31.081081 18.224 31.081081 17.42 C 31.081081 16.616 31.621622 16.08 32.432432 16.08 C 33.243243 16.08 33.783784 16.616 33.783784 17.42 Z " style="stroke: none; stroke-linecap: butt; stroke-width: 0; fill: rgb(64%,80%,22%); fill-rule: evenodd;"/><path d="M 33.783784 17.42 C 33.783784 18.224 33.243243 18.76 32.432432 18.76 C 31.621622 18.76 31.081081 18.224 31.081081 17.42 C 31.081081 16.616 31.621622 16.08 32.432432 16.08 C 33.243243 16.08 33.783784 16.616 33.783784 17.42 " style="stroke: none; stroke-linecap: butt; stroke-width: 1; fill: none; fill-rule: evenodd;"/></g><g transform=""><path d="M 21.621622 20.1 C 21.621622 20.904 21.081081 21.44 20.27027 21.44 C 19.45946 21.44 18.918919 20.904 18.918919 20.1 C 18.918919 19.296 19.45946 18.76 20.27027 18.76 C 20.945946 18.76 21.621622 19.43 21.621622 20.1 Z " style="stroke: none; stroke-linecap: butt; stroke-width: 0; fill: rgb(64%,80%,22%); fill-rule: evenodd;"/><path d="M 21.621622 20.1 C 21.621622 20.904 21.081081 21.44 20.27027 21.44 C 19.45946 21.44 18.918919 20.904 18.918919 20.1 C 18.918919 19.296 19.45946 18.76 20.27027 18.76 C 20.945946 18.76 21.621622 19.43 21.621622 20.1 " style="stroke: none; stroke-linecap: butt; stroke-width: 1; fill: none; fill-rule: evenodd;"/></g><g transform=""><path d="M 25.675676 20.1 C 25.675676 20.904 25.135135 21.44 24.324324 21.44 C 23.513513 21.44 22.972973 20.904 22.972973 20.1 C 22.972973 19.296 23.513513 18.76 24.324324 18.76 C 25.135135 18.76 25.675676 19.43 25.675676 20.1 Z " style="stroke: none; stroke-linecap: butt; stroke-width: 0; fill: rgb(64%,80%,22%); fill-rule: evenodd;"/><path d="M 25.675676 20.1 C 25.675676 20.904 25.135135 21.44 24.324324 21.44 C 23.513513 21.44 22.972973 20.904 22.972973 20.1 C 22.972973 19.296 23.513513 18.76 24.324324 18.76 C 25.135135 18.76 25.675676 19.43 25.675676 20.1 " style="stroke: none; stroke-linecap: butt; stroke-width: 1; fill: none; fill-rule: evenodd;"/></g><g transform=""><path d="M 18.918919 17.42 C 18.918919 18.224 18.243243 18.76 17.567568 18.76 C 16.891892 18.76 16.216216 18.224 16.216216 17.42 C 16.216216 16.616 16.756757 16.08 17.567568 16.08 C 18.243243 16.08 18.918919 16.616 18.918919 17.42 Z " style="stroke: none; stroke-linecap: butt; stroke-width: 0; fill: rgb(64%,80%,22%); fill-rule: evenodd;"/><path d="M 18.918919 17.42 C 18.918919 18.224 18.243243 18.76 17.567568 18.76 C 16.891892 18.76 16.216216 18.224 16.216216 17.42 C 16.216216 16.616 16.756757 16.08 17.567568 16.08 C 18.243243 16.08 18.918919 16.616 18.918919 17.42 " style="stroke: none; stroke-linecap: butt; stroke-width: 1; fill: none; fill-rule: evenodd;"/></g><g transform=""><path d="M 21.621622 25.46 C 21.621622 26.264 21.081081 26.8 20.27027 26.8 C 19.45946 26.8 18.918919 26.264 18.918919 25.46 C 18.918919 24.656 19.45946 24.12 20.27027 24.12 C 20.945946 24.12 21.621622 24.656 21.621622 25.46 Z " style="stroke: none; stroke-linecap: butt; stroke-width: 0; fill: rgb(64%,80%,22%); fill-rule: evenodd;"/><path d="M 21.621622 25.46 C 21.621622 26.264 21.081081 26.8 20.27027 26.8 C 19.45946 26.8 18.918919 26.264 18.918919 25.46 C 18.918919 24.656 19.45946 24.12 20.27027 24.12 C 20.945946 24.12 21.621622 24.656 21.621622 25.46 " style="stroke: none; stroke-linecap: butt; stroke-width: 1; fill: none; fill-rule: evenodd;"/></g><g transform=""><path d="M 24.324324 28.14 C 24.324324 28.944 23.648649 29.48 22.972973 29.48 C 22.297297 29.48 21.621622 28.81 21.621622 28.14 C 21.621622 27.336 22.297297 26.8 22.972973 26.8 C 23.648649 26.8 24.324324 27.336 24.324324 28.14 Z " style="stroke: none; stroke-linecap: butt; stroke-width: 0; fill: rgb(64%,80%,22%); fill-rule: evenodd;"/><path d="M 24.324324 28.14 C 24.324324 28.944 23.648649 29.48 22.972973 29.48 C 22.297297 29.48 21.621622 28.81 21.621622 28.14 C 21.621622 27.336 22.297297 26.8 22.972973 26.8 C 23.648649 26.8 24.324324 27.336 24.324324 28.14 " style="stroke: none; stroke-linecap: butt; stroke-width: 1; fill: none; fill-rule: evenodd;"/></g><g transform=""><path d="M 28.378378 28.14 C 28.378378 28.944 27.837838 29.48 27.027027 29.48 C 26.216216 29.48 25.675676 28.81 25.675676 28.14 C 25.675676 27.336 26.351351 26.8 27.027027 26.8 C 27.702703 26.8 28.378378 27.336 28.378378 28.14 Z " style="stroke: none; stroke-linecap: butt; stroke-width: 0; fill: rgb(64%,80%,22%); fill-rule: evenodd;"/><path d="M 28.378378 28.14 C 28.378378 28.944 27.837838 29.48 27.027027 29.48 C 26.216216 29.48 25.675676 28.81 25.675676 28.14 C 25.675676 27.336 26.351351 26.8 27.027027 26.8 C 27.702703 26.8 28.378378 27.336 28.378378 28.14 " style="stroke: none; stroke-linecap: butt; stroke-width: 1; fill: none; fill-rule: evenodd;"/></g><g transform=""><path d="M 25.675676 25.46 C 25.675676 26.264 25.135135 26.8 24.324324 26.8 C 23.513513 26.8 22.972973 26.264 22.972973 25.46 C 22.972973 24.656 23.513513 24.12 24.324324 24.12 C 25.135135 24.12 25.675676 24.656 25.675676 25.46 Z " style="stroke: none; stroke-linecap: butt; stroke-width: 0; fill: rgb(64%,80%,22%); fill-rule: evenodd;"/><path d="M 25.675676 25.46 C 25.675676 26.264 25.135135 26.8 24.324324 26.8 C 23.513513 26.8 22.972973 26.264 22.972973 25.46 C 22.972973 24.656 23.513513 24.12 24.324324 24.12 C 25.135135 24.12 25.675676 24.656 25.675676 25.46 " style="stroke: none; stroke-linecap: butt; stroke-width: 1; fill: none; fill-rule: evenodd;"/></g><g transform=""><path d="M 31.081081 25.46 C 31.081081 26.264 30.405405 26.8 29.72973 26.8 C 29.054054 26.8 28.378378 26.264 28.378378 25.46 C 28.378378 24.656 28.918919 24.12 29.72973 24.12 C 30.54054 24.12 31.081081 24.656 31.081081 25.46 Z " style="stroke: none; stroke-linecap: butt; stroke-width: 0; fill: rgb(64%,80%,22%); fill-rule: evenodd;"/><path d="M 31.081081 25.46 C 31.081081 26.264 30.405405 26.8 29.72973 26.8 C 29.054054 26.8 28.378378 26.264 28.378378 25.46 C 28.378378 24.656 28.918919 24.12 29.72973 24.12 C 30.54054 24.12 31.081081 24.656 31.081081 25.46 " style="stroke: none; stroke-linecap: butt; stroke-width: 1; fill: none; fill-rule: evenodd;"/></g><g transform=""><path d="M 25.675676 36.188525 C 25.675676 36.98741 25.135135 37.52 24.324324 37.52 C 23.513513 37.52 22.972973 36.854263 22.972973 36.188525 C 22.972973 35.522788 23.513513 34.85705 24.324324 34.85705 C 25.135135 34.723903 25.675676 35.38964 25.675676 36.188525 Z " style="stroke: none; stroke-linecap: butt; stroke-width: 0; fill: rgb(90%,92%,92%); fill-rule: evenodd;"/><path d="M 25.675676 36.188525 C 25.675676 36.98741 25.135135 37.52 24.324324 37.52 C 23.513513 37.52 22.972973 36.854263 22.972973 36.188525 C 22.972973 35.522788 23.513513 34.85705 24.324324 34.85705 C 25.135135 34.723903 25.675676 35.38964 25.675676 36.188525 " style="stroke: none; stroke-linecap: butt; stroke-width: 1; fill: none; fill-rule: evenodd;"/></g><g transform=""><path d="M 25.675676 40.2 C 25.675676 41.004 25.135135 41.54 24.324324 41.54 C 23.513513 41.54 22.972973 41.004 22.972973 40.2 C 22.972973 39.396 23.513513 38.86 24.324324 38.86 C 25.135135 38.86 25.675676 39.396 25.675676 40.2 Z " style="stroke: none; stroke-linecap: butt; stroke-width: 0; fill: rgb(90%,92%,92%); fill-rule: evenodd;"/><path d="M 25.675676 40.2 C 25.675676 41.004 25.135135 41.54 24.324324 41.54 C 23.513513 41.54 22.972973 41.004 22.972973 40.2 C 22.972973 39.396 23.513513 38.86 24.324324 38.86 C 25.135135 38.86 25.675676 39.396 25.675676 40.2 " style="stroke: none; stroke-linecap: butt; stroke-width: 1; fill: none; fill-rule: evenodd;"/></g><g transform=""><path d="M 25.675676 45.56 C 25.675676 46.364 25.135135 46.9 24.324324 46.9 C 23.513513 46.9 22.972973 46.23 22.972973 45.56 C 22.972973 44.89 23.513513 44.22 24.324324 44.22 C 25.135135 44.22 25.675676 44.756 25.675676 45.56 Z " style="stroke: none; stroke-linecap: butt; stroke-width: 0; fill: rgb(90%,92%,92%); fill-rule: evenodd;"/><path d="M 25.675676 45.56 C 25.675676 46.364 25.135135 46.9 24.324324 46.9 C 23.513513 46.9 22.972973 46.23 22.972973 45.56 C 22.972973 44.89 23.513513 44.22 24.324324 44.22 C 25.135135 44.22 25.675676 44.756 25.675676 45.56 " style="stroke: none; stroke-linecap: butt; stroke-width: 1; fill: none; fill-rule: evenodd;"/></g><g transform=""><path d="M 25.675676 50.92 C 25.675676 51.724 25.135135 52.26 24.324324 52.26 C 23.513513 52.26 22.972973 51.724 22.972973 50.92 C 22.972973 50.116 23.513513 49.58 24.324324 49.58 C 25.135135 49.58 25.675676 50.116 25.675676 50.92 Z " style="stroke: none; stroke-linecap: butt; stroke-width: 0; fill: rgb(90%,92%,92%); fill-rule: evenodd;"/><path d="M 25.675676 50.92 C 25.675676 51.724 25.135135 52.26 24.324324 52.26 C 23.513513 52.26 22.972973 51.724 22.972973 50.92 C 22.972973 50.116 23.513513 49.58 24.324324 49.58 C 25.135135 49.58 25.675676 50.116 25.675676 50.92 " style="stroke: none; stroke-linecap: butt; stroke-width: 1; fill: none; fill-rule: evenodd;"/></g><g transform=""><path d="M 31.081081 53.6 C 31.081081 54.404 30.405405 54.94 29.72973 54.94 C 29.054054 54.94 28.378378 54.404 28.378378 53.6 C 28.378378 52.796 28.918919 52.26 29.72973 52.26 C 30.54054 52.26 31.081081 52.93 31.081081 53.6 Z " style="stroke: none; stroke-linecap: butt; stroke-width: 0; fill: rgb(90%,92%,92%); fill-rule: evenodd;"/><path d="M 31.081081 53.6 C 31.081081 54.404 30.405405 54.94 29.72973 54.94 C 29.054054 54.94 28.378378 54.404 28.378378 53.6 C 28.378378 52.796 28.918919 52.26 29.72973 52.26 C 30.54054 52.26 31.081081 52.93 31.081081 53.6 " style="stroke: none; stroke-linecap: butt; stroke-width: 1; fill: none; fill-rule: evenodd;"/></g><g transform=""><path d="M 36.486486 53.6 C 36.486486 54.404 35.810811 54.94 35.135135 54.94 C 34.45946 54.94 33.783784 54.404 33.783784 53.6 C 33.783784 52.796 34.45946 52.26 35.135135 52.26 C 35.945946 52.26 36.486486 52.93 36.486486 53.6 Z " style="stroke: none; stroke-linecap: butt; stroke-width: 0; fill: rgb(90%,92%,92%); fill-rule: evenodd;"/><path d="M 36.486486 53.6 C 36.486486 54.404 35.810811 54.94 35.135135 54.94 C 34.45946 54.94 33.783784 54.404 33.783784 53.6 C 33.783784 52.796 34.45946 52.26 35.135135 52.26 C 35.945946 52.26 36.486486 52.93 36.486486 53.6 " style="stroke: none; stroke-linecap: butt; stroke-width: 1; fill: none; fill-rule: evenodd;"/></g></g></g></g></g></g></g></svg>